<svg xmlns="http://www.w3.org/2000/svg" width="1200" height="760" viewBox="0 0 1200 760" role="img">
<rect width="1200" height="760" fill="#f8fafc"/>
<text x="76" y="38" font-size="25" font-weight="700" fill="#111827">Production-To-Clearance Cycle Components</text>
<text x="76" y="62" font-size="14" fill="#4b5563">Mean player turns by displayed scenario and x; dark segment is settlement</text>
<rect x="76" y="82" width="934" height="590" fill="#ffffff"/>
<line x1="76" y1="672" x2="1010" y2="672" stroke="#111827" stroke-width="1"/>
<line x1="76" y1="82" x2="76" y2="672" stroke="#111827" stroke-width="1"/>
<line x1="76" y1="672.0" x2="1010" y2="672.0" stroke="#e5e7eb" stroke-width="1"/>
<text x="66" y="676.0" text-anchor="end" font-size="12" fill="#4b5563">0</text>
<line x1="76" y1="554.0" x2="1010" y2="554.0" stroke="#e5e7eb" stroke-width="1"/>
<text x="66" y="558.0" text-anchor="end" font-size="12" fill="#4b5563">200</text>
<line x1="76" y1="436.0" x2="1010" y2="436.0" stroke="#e5e7eb" stroke-width="1"/>
<text x="66" y="440.0" text-anchor="end" font-size="12" fill="#4b5563">400</text>
<line x1="76" y1="318.0" x2="1010" y2="318.0" stroke="#e5e7eb" stroke-width="1"/>
<text x="66" y="322.0" text-anchor="end" font-size="12" fill="#4b5563">600</text>
<line x1="76" y1="200.0" x2="1010" y2="200.0" stroke="#e5e7eb" stroke-width="1"/>
<text x="66" y="204.0" text-anchor="end" font-size="12" fill="#4b5563">800</text>
<line x1="76" y1="82.0" x2="1010" y2="82.0" stroke="#e5e7eb" stroke-width="1"/>
<text x="66" y="86.0" text-anchor="end" font-size="12" fill="#4b5563">1000</text>
<line x1="76.0" y1="82" x2="76.0" y2="672" stroke="#f3f4f6" stroke-width="1"/>
<text x="76.0" y="694" text-anchor="middle" font-size="12" fill="#4b5563">0</text>
<line x1="219.7" y1="82" x2="219.7" y2="672" stroke="#f3f4f6" stroke-width="1"/>
<text x="219.7" y="694" text-anchor="middle" font-size="12" fill="#4b5563">0.1</text>
<line x1="291.5" y1="82" x2="291.5" y2="672" stroke="#f3f4f6" stroke-width="1"/>
<text x="291.5" y="694" text-anchor="middle" font-size="12" fill="#4b5563">0.15</text>
<line x1="507.1" y1="82" x2="507.1" y2="672" stroke="#f3f4f6" stroke-width="1"/>
<text x="507.1" y="694" text-anchor="middle" font-size="12" fill="#4b5563">0.3</text>
<line x1="722.6" y1="82" x2="722.6" y2="672" stroke="#f3f4f6" stroke-width="1"/>
<text x="722.6" y="694" text-anchor="middle" font-size="12" fill="#4b5563">0.45</text>
<line x1="938.2" y1="82" x2="938.2" y2="672" stroke="#f3f4f6" stroke-width="1"/>
<text x="938.2" y="694" text-anchor="middle" font-size="12" fill="#4b5563">0.6</text>
<line x1="1010.0" y1="82" x2="1010.0" y2="672" stroke="#f3f4f6" stroke-width="1"/>
<text x="1010.0" y="694" text-anchor="middle" font-size="12" fill="#4b5563">0.65</text>
<text x="543.0" y="752" text-anchor="middle" font-size="13" fill="#374151">x: scenario intensity, grouped by scenario</text>
<text x="20" y="377.0" transform="rotate(-90 20 377.0)" text-anchor="middle" font-size="13" fill="#374151">mean player turns</text>
<rect x="96.0" y="547.6" width="25.4" height="124.4" fill="#d8dee9"/>
<rect x="96.0" y="581.9" width="25.4" height="90.1" fill="#ca8a04"/>
<rect x="96.0" y="547.6" width="25.4" height="34.4" fill="#111827" opacity="0.82"/>
<text x="108.7" y="710" text-anchor="middle" font-size="10" fill="#4b5563">0</text>
<rect x="126.4" y="547.0" width="25.4" height="125.0" fill="#d8dee9"/>
<rect x="126.4" y="578.3" width="25.4" height="93.7" fill="#ca8a04"/>
<rect x="126.4" y="547.0" width="25.4" height="31.3" fill="#111827" opacity="0.82"/>

<rect x="156.7" y="538.0" width="25.4" height="134.0" fill="#d8dee9"/>
<rect x="156.7" y="573.7" width="25.4" height="98.3" fill="#ca8a04"/>
<rect x="156.7" y="538.0" width="25.4" height="35.6" fill="#111827" opacity="0.82"/>
<text x="169.4" y="710" text-anchor="middle" font-size="10" fill="#4b5563">0.1</text>
<rect x="187.1" y="521.3" width="25.4" height="150.7" fill="#d8dee9"/>
<rect x="187.1" y="557.0" width="25.4" height="115.0" fill="#ca8a04"/>
<rect x="187.1" y="521.3" width="25.4" height="35.7" fill="#111827" opacity="0.82"/>

<rect x="217.4" y="519.0" width="25.4" height="153.0" fill="#d8dee9"/>
<rect x="217.4" y="553.7" width="25.4" height="118.3" fill="#ca8a04"/>
<rect x="217.4" y="519.0" width="25.4" height="34.6" fill="#111827" opacity="0.82"/>
<text x="230.1" y="710" text-anchor="middle" font-size="10" fill="#4b5563">0.2</text>
<rect x="247.8" y="506.9" width="25.4" height="165.1" fill="#d8dee9"/>
<rect x="247.8" y="542.2" width="25.4" height="129.8" fill="#ca8a04"/>
<rect x="247.8" y="506.9" width="25.4" height="35.3" fill="#111827" opacity="0.82"/>

<rect x="278.1" y="498.6" width="25.4" height="173.4" fill="#d8dee9"/>
<rect x="278.1" y="530.1" width="25.4" height="141.9" fill="#ca8a04"/>
<rect x="278.1" y="498.6" width="25.4" height="31.5" fill="#111827" opacity="0.82"/>
<text x="290.8" y="710" text-anchor="middle" font-size="10" fill="#4b5563">0.3</text>
<rect x="308.5" y="497.6" width="25.4" height="174.4" fill="#d8dee9"/>
<rect x="308.5" y="530.4" width="25.4" height="141.6" fill="#ca8a04"/>
<rect x="308.5" y="497.6" width="25.4" height="32.7" fill="#111827" opacity="0.82"/>

<rect x="338.9" y="487.0" width="25.4" height="185.0" fill="#d8dee9"/>
<rect x="338.9" y="517.9" width="25.4" height="154.1" fill="#ca8a04"/>
<rect x="338.9" y="487.0" width="25.4" height="30.9" fill="#111827" opacity="0.82"/>
<text x="351.5" y="710" text-anchor="middle" font-size="10" fill="#4b5563">0.4</text>
<rect x="369.2" y="464.5" width="25.4" height="207.5" fill="#d8dee9"/>
<rect x="369.2" y="497.1" width="25.4" height="174.9" fill="#ca8a04"/>
<rect x="369.2" y="464.5" width="25.4" height="32.6" fill="#111827" opacity="0.82"/>

<rect x="399.6" y="453.2" width="25.4" height="218.8" fill="#d8dee9"/>
<rect x="399.6" y="484.9" width="25.4" height="187.1" fill="#ca8a04"/>
<rect x="399.6" y="453.2" width="25.4" height="31.7" fill="#111827" opacity="0.82"/>
<text x="412.3" y="710" text-anchor="middle" font-size="10" fill="#4b5563">0.5</text>
<rect x="429.9" y="424.5" width="25.4" height="247.5" fill="#d8dee9"/>
<rect x="429.9" y="458.0" width="25.4" height="214.0" fill="#ca8a04"/>
<rect x="429.9" y="424.5" width="25.4" height="33.5" fill="#111827" opacity="0.82"/>

<rect x="460.3" y="401.3" width="25.4" height="270.7" fill="#d8dee9"/>
<rect x="460.3" y="433.7" width="25.4" height="238.3" fill="#ca8a04"/>
<rect x="460.3" y="401.3" width="25.4" height="32.4" fill="#111827" opacity="0.82"/>
<text x="473.0" y="710" text-anchor="middle" font-size="10" fill="#4b5563">0.6</text>
<rect x="490.6" y="372.9" width="25.4" height="299.1" fill="#d8dee9"/>
<rect x="490.6" y="404.7" width="25.4" height="267.3" fill="#ca8a04"/>
<rect x="490.6" y="372.9" width="25.4" height="31.8" fill="#111827" opacity="0.82"/>
<text x="503.3" y="710" text-anchor="middle" font-size="10" fill="#4b5563">0.65</text>
<text x="311.5" y="738" text-anchor="middle" font-size="13" fill="#111827">Scarcity Hoarding</text>
<rect x="563.0" y="544.1" width="25.4" height="127.9" fill="#d8dee9"/>
<rect x="563.0" y="578.0" width="25.4" height="94.0" fill="#059669"/>
<rect x="563.0" y="544.1" width="25.4" height="33.9" fill="#111827" opacity="0.82"/>
<text x="575.7" y="710" text-anchor="middle" font-size="10" fill="#4b5563">0</text>
<rect x="593.4" y="553.1" width="25.4" height="118.9" fill="#d8dee9"/>
<rect x="593.4" y="586.1" width="25.4" height="85.9" fill="#059669"/>
<rect x="593.4" y="553.1" width="25.4" height="33.0" fill="#111827" opacity="0.82"/>

<rect x="623.7" y="548.9" width="25.4" height="123.1" fill="#d8dee9"/>
<rect x="623.7" y="580.3" width="25.4" height="91.7" fill="#059669"/>
<rect x="623.7" y="548.9" width="25.4" height="31.3" fill="#111827" opacity="0.82"/>
<text x="636.4" y="710" text-anchor="middle" font-size="10" fill="#4b5563">0.1</text>
<rect x="654.1" y="541.8" width="25.4" height="130.2" fill="#d8dee9"/>
<rect x="654.1" y="579.8" width="25.4" height="92.2" fill="#059669"/>
<rect x="654.1" y="541.8" width="25.4" height="38.0" fill="#111827" opacity="0.82"/>

<rect x="684.4" y="544.6" width="25.4" height="127.4" fill="#d8dee9"/>
<rect x="684.4" y="579.0" width="25.4" height="93.0" fill="#059669"/>
<rect x="684.4" y="544.6" width="25.4" height="34.4" fill="#111827" opacity="0.82"/>
<text x="697.1" y="710" text-anchor="middle" font-size="10" fill="#4b5563">0.2</text>
<rect x="714.8" y="538.8" width="25.4" height="133.2" fill="#d8dee9"/>
<rect x="714.8" y="576.7" width="25.4" height="95.3" fill="#059669"/>
<rect x="714.8" y="538.8" width="25.4" height="38.0" fill="#111827" opacity="0.82"/>

<rect x="745.1" y="532.2" width="25.4" height="139.8" fill="#d8dee9"/>
<rect x="745.1" y="571.3" width="25.4" height="100.7" fill="#059669"/>
<rect x="745.1" y="532.2" width="25.4" height="39.1" fill="#111827" opacity="0.82"/>
<text x="757.8" y="710" text-anchor="middle" font-size="10" fill="#4b5563">0.3</text>
<rect x="775.5" y="527.8" width="25.4" height="144.2" fill="#d8dee9"/>
<rect x="775.5" y="568.7" width="25.4" height="103.3" fill="#059669"/>
<rect x="775.5" y="527.8" width="25.4" height="40.9" fill="#111827" opacity="0.82"/>

<rect x="805.9" y="521.9" width="25.4" height="150.1" fill="#d8dee9"/>
<rect x="805.9" y="565.8" width="25.4" height="106.2" fill="#059669"/>
<rect x="805.9" y="521.9" width="25.4" height="43.8" fill="#111827" opacity="0.82"/>
<text x="818.5" y="710" text-anchor="middle" font-size="10" fill="#4b5563">0.4</text>
<rect x="836.2" y="514.8" width="25.4" height="157.2" fill="#d8dee9"/>
<rect x="836.2" y="560.1" width="25.4" height="111.9" fill="#059669"/>
<rect x="836.2" y="514.8" width="25.4" height="45.4" fill="#111827" opacity="0.82"/>

<rect x="866.6" y="498.3" width="25.4" height="173.7" fill="#d8dee9"/>
<rect x="866.6" y="553.0" width="25.4" height="119.0" fill="#059669"/>
<rect x="866.6" y="498.3" width="25.4" height="54.7" fill="#111827" opacity="0.82"/>
<text x="879.3" y="710" text-anchor="middle" font-size="10" fill="#4b5563">0.5</text>
<rect x="896.9" y="501.2" width="25.4" height="170.8" fill="#d8dee9"/>
<rect x="896.9" y="549.2" width="25.4" height="122.8" fill="#059669"/>
<rect x="896.9" y="501.2" width="25.4" height="48.0" fill="#111827" opacity="0.82"/>

<rect x="927.3" y="470.9" width="25.4" height="201.1" fill="#d8dee9"/>
<rect x="927.3" y="531.5" width="25.4" height="140.5" fill="#059669"/>
<rect x="927.3" y="470.9" width="25.4" height="60.6" fill="#111827" opacity="0.82"/>
<text x="940.0" y="710" text-anchor="middle" font-size="10" fill="#4b5563">0.6</text>
<rect x="957.6" y="453.9" width="25.4" height="218.1" fill="#d8dee9"/>
<rect x="957.6" y="524.7" width="25.4" height="147.3" fill="#059669"/>
<rect x="957.6" y="453.9" width="25.4" height="70.8" fill="#111827" opacity="0.82"/>
<text x="970.3" y="710" text-anchor="middle" font-size="10" fill="#4b5563">0.65</text>
<text x="778.5" y="738" text-anchor="middle" font-size="13" fill="#111827">Common Basket thinness</text>
<rect x="1032" y="126" width="14" height="14" fill="#111827" opacity="0.82"/><text x="1054" y="138" font-size="13" fill="#111827">settlement turns</text>
<rect x="1032" y="150" width="8" height="14" fill="#ca8a04"/><rect x="1040" y="150" width="8" height="14" fill="#059669"/><text x="1054" y="162" font-size="13" fill="#111827">production turns</text>
</svg>
