<svg xmlns="http://www.w3.org/2000/svg" width="1200" height="760" viewBox="0 0 1200 760" role="img">
<rect width="1200" height="760" fill="#f8fafc"/>
<text x="76" y="38" font-size="25" font-weight="700" fill="#111827">Clearance Rate Under Economic Friction</text>
<text x="76" y="62" font-size="14" fill="#4b5563">Share of runs that cleared all products and obligations within the turn cap</text>
<rect x="76" y="88" width="874" height="598" fill="#ffffff"/>
<line x1="76" y1="686" x2="950" y2="686" stroke="#111827" stroke-width="1"/>
<line x1="76" y1="88" x2="76" y2="686" stroke="#111827" stroke-width="1"/>
<line x1="76" y1="686.0" x2="950" y2="686.0" stroke="#e5e7eb" stroke-width="1"/>
<text x="66" y="690.0" text-anchor="end" font-size="12" fill="#4b5563">0%</text>
<line x1="76" y1="566.4" x2="950" y2="566.4" stroke="#e5e7eb" stroke-width="1"/>
<text x="66" y="570.4" text-anchor="end" font-size="12" fill="#4b5563">20%</text>
<line x1="76" y1="446.8" x2="950" y2="446.8" stroke="#e5e7eb" stroke-width="1"/>
<text x="66" y="450.8" text-anchor="end" font-size="12" fill="#4b5563">40%</text>
<line x1="76" y1="327.2" x2="950" y2="327.2" stroke="#e5e7eb" stroke-width="1"/>
<text x="66" y="331.2" text-anchor="end" font-size="12" fill="#4b5563">60%</text>
<line x1="76" y1="207.6" x2="950" y2="207.6" stroke="#e5e7eb" stroke-width="1"/>
<text x="66" y="211.6" text-anchor="end" font-size="12" fill="#4b5563">80%</text>
<line x1="76" y1="88.0" x2="950" y2="88.0" stroke="#e5e7eb" stroke-width="1"/>
<text x="66" y="92.0" text-anchor="end" font-size="12" fill="#4b5563">100%</text>
<line x1="76.0" y1="88" x2="76.0" y2="686" stroke="#f3f4f6" stroke-width="1"/>
<text x="76.0" y="708" text-anchor="middle" font-size="12" fill="#4b5563">0</text>
<line x1="210.5" y1="88" x2="210.5" y2="686" stroke="#f3f4f6" stroke-width="1"/>
<text x="210.5" y="708" text-anchor="middle" font-size="12" fill="#4b5563">0.1</text>
<line x1="277.7" y1="88" x2="277.7" y2="686" stroke="#f3f4f6" stroke-width="1"/>
<text x="277.7" y="708" text-anchor="middle" font-size="12" fill="#4b5563">0.15</text>
<line x1="479.4" y1="88" x2="479.4" y2="686" stroke="#f3f4f6" stroke-width="1"/>
<text x="479.4" y="708" text-anchor="middle" font-size="12" fill="#4b5563">0.3</text>
<line x1="681.1" y1="88" x2="681.1" y2="686" stroke="#f3f4f6" stroke-width="1"/>
<text x="681.1" y="708" text-anchor="middle" font-size="12" fill="#4b5563">0.45</text>
<line x1="882.8" y1="88" x2="882.8" y2="686" stroke="#f3f4f6" stroke-width="1"/>
<text x="882.8" y="708" text-anchor="middle" font-size="12" fill="#4b5563">0.6</text>
<line x1="950.0" y1="88" x2="950.0" y2="686" stroke="#f3f4f6" stroke-width="1"/>
<text x="950.0" y="708" text-anchor="middle" font-size="12" fill="#4b5563">0.65</text>
<path d="M 76.0 88.0 L 143.2 88.0 L 210.5 88.0 L 277.7 88.0 L 344.9 88.0 L 412.2 88.0 L 479.4 88.0 L 546.6 88.0 L 613.8 88.0 L 681.1 88.0 L 748.3 88.0 L 815.5 88.0 L 882.8 88.0 L 950.0 88.0" fill="none" stroke="#ca8a04" stroke-width="3" stroke-linejoin="round"/>
<circle cx="76.0" cy="88.0" r="4.5" fill="#ca8a04" stroke="#ffffff" stroke-width="1.5"/>
<circle cx="143.2" cy="88.0" r="4.5" fill="#ca8a04" stroke="#ffffff" stroke-width="1.5"/>
<circle cx="210.5" cy="88.0" r="4.5" fill="#ca8a04" stroke="#ffffff" stroke-width="1.5"/>
<circle cx="277.7" cy="88.0" r="4.5" fill="#ca8a04" stroke="#ffffff" stroke-width="1.5"/>
<circle cx="344.9" cy="88.0" r="4.5" fill="#ca8a04" stroke="#ffffff" stroke-width="1.5"/>
<circle cx="412.2" cy="88.0" r="4.5" fill="#ca8a04" stroke="#ffffff" stroke-width="1.5"/>
<circle cx="479.4" cy="88.0" r="4.5" fill="#ca8a04" stroke="#ffffff" stroke-width="1.5"/>
<circle cx="546.6" cy="88.0" r="4.5" fill="#ca8a04" stroke="#ffffff" stroke-width="1.5"/>
<circle cx="613.8" cy="88.0" r="4.5" fill="#ca8a04" stroke="#ffffff" stroke-width="1.5"/>
<circle cx="681.1" cy="88.0" r="4.5" fill="#ca8a04" stroke="#ffffff" stroke-width="1.5"/>
<circle cx="748.3" cy="88.0" r="4.5" fill="#ca8a04" stroke="#ffffff" stroke-width="1.5"/>
<circle cx="815.5" cy="88.0" r="4.5" fill="#ca8a04" stroke="#ffffff" stroke-width="1.5"/>
<circle cx="882.8" cy="88.0" r="4.5" fill="#ca8a04" stroke="#ffffff" stroke-width="1.5"/>
<circle cx="950.0" cy="88.0" r="4.5" fill="#ca8a04" stroke="#ffffff" stroke-width="1.5"/>
<path d="M 76.0 88.0 L 143.2 88.0 L 210.5 88.0 L 277.7 88.0 L 344.9 88.0 L 412.2 88.0 L 479.4 88.0 L 546.6 88.0 L 613.8 88.0 L 681.1 88.0 L 748.3 88.0 L 815.5 88.0 L 882.8 88.0 L 950.0 88.0" fill="none" stroke="#059669" stroke-width="3" stroke-linejoin="round"/>
<circle cx="76.0" cy="88.0" r="4.5" fill="#059669" stroke="#ffffff" stroke-width="1.5"/>
<circle cx="143.2" cy="88.0" r="4.5" fill="#059669" stroke="#ffffff" stroke-width="1.5"/>
<circle cx="210.5" cy="88.0" r="4.5" fill="#059669" stroke="#ffffff" stroke-width="1.5"/>
<circle cx="277.7" cy="88.0" r="4.5" fill="#059669" stroke="#ffffff" stroke-width="1.5"/>
<circle cx="344.9" cy="88.0" r="4.5" fill="#059669" stroke="#ffffff" stroke-width="1.5"/>
<circle cx="412.2" cy="88.0" r="4.5" fill="#059669" stroke="#ffffff" stroke-width="1.5"/>
<circle cx="479.4" cy="88.0" r="4.5" fill="#059669" stroke="#ffffff" stroke-width="1.5"/>
<circle cx="546.6" cy="88.0" r="4.5" fill="#059669" stroke="#ffffff" stroke-width="1.5"/>
<circle cx="613.8" cy="88.0" r="4.5" fill="#059669" stroke="#ffffff" stroke-width="1.5"/>
<circle cx="681.1" cy="88.0" r="4.5" fill="#059669" stroke="#ffffff" stroke-width="1.5"/>
<circle cx="748.3" cy="88.0" r="4.5" fill="#059669" stroke="#ffffff" stroke-width="1.5"/>
<circle cx="815.5" cy="88.0" r="4.5" fill="#059669" stroke="#ffffff" stroke-width="1.5"/>
<circle cx="882.8" cy="88.0" r="4.5" fill="#059669" stroke="#ffffff" stroke-width="1.5"/>
<circle cx="950.0" cy="88.0" r="4.5" fill="#059669" stroke="#ffffff" stroke-width="1.5"/>
<text x="513.0" y="740" text-anchor="middle" font-size="13" fill="#374151">x: scenario intensity</text>
<text x="20" y="387.0" transform="rotate(-90 20 387.0)" text-anchor="middle" font-size="13" fill="#374151">clearance rate</text>
<line x1="984" y1="92" x2="1006" y2="92" stroke="#ca8a04" stroke-width="4"/>
<circle cx="995" cy="92" r="4" fill="#ca8a04" stroke="#ffffff" stroke-width="1"/>
<text x="1016" y="97" font-size="13" fill="#111827">Scarcity Hoarding</text>
<line x1="984" y1="120" x2="1006" y2="120" stroke="#059669" stroke-width="4"/>
<circle cx="995" cy="120" r="4" fill="#059669" stroke="#ffffff" stroke-width="1"/>
<text x="1016" y="125" font-size="13" fill="#111827">Common Basket thinness</text>
</svg>
